<?xml version="1.0" encoding="UTF-8"?>
<svg viewBox="0 0 549.8775 456.32388" xmlns="http://www.w3.org/2000/svg" xmlns:xlink="http://www.w3.org/1999/xlink">
 <defs>
  <linearGradient id="e">
   <stop stop-color="#b2a677" offset="0"/>
   <stop stop-color="#b2a677" stop-opacity="0" offset="1"/>
  </linearGradient>
  <linearGradient id="a">
   <stop stop-color="#444138" offset="0"/>
   <stop stop-color="#808078" stop-opacity="0" offset="1"/>
  </linearGradient>
  <linearGradient id="t" x1="149.84" x2="149.79" y1="438.53" y2="467.19" gradientUnits="userSpaceOnUse">
   <stop stop-color="#94908a" offset="0"/>
   <stop stop-color="#94908a" stop-opacity="0" offset="1"/>
  </linearGradient>
  <linearGradient id="d">
   <stop stop-color="#282811" offset="0"/>
   <stop stop-color="#6b6f71" stop-opacity="0" offset="1"/>
  </linearGradient>
  <linearGradient id="z" x2="0" y1="300.87" y2="329.93" gradientUnits="userSpaceOnUse">
   <stop stop-color="#5e6166" offset="0"/>
   <stop stop-color="#5e6166" stop-opacity="0" offset="1"/>
  </linearGradient>
  <linearGradient id="aa" x1="251.17" x2="198.9" y1="371.36" y2="350.96" gradientUnits="userSpaceOnUse">
   <stop stop-color="#2a2f29" offset="0"/>
   <stop stop-color="#2a2f29" stop-opacity="0" offset="1"/>
  </linearGradient>
  <linearGradient id="ab" x1="173.23" x2="253.37" y1="357.38" y2="360.36" gradientUnits="userSpaceOnUse">
   <stop stop-color="#808080" offset="0"/>
   <stop stop-color="#808080" stop-opacity="0" offset="1"/>
  </linearGradient>
  <linearGradient id="ac" x1="319.72" x2="320.8" y1="257.88" y2="275.99" gradientUnits="userSpaceOnUse">
   <stop stop-color="#726a5e" offset="0"/>
   <stop stop-color="#726a5e" stop-opacity="0" offset="1"/>
  </linearGradient>
  <linearGradient id="ad" x2="0" y1="234.92" y2="293.6" gradientUnits="userSpaceOnUse">
   <stop stop-color="#7b7265" offset="0"/>
   <stop stop-color="#e0d6bd" stop-opacity="0" offset="1"/>
  </linearGradient>
  <linearGradient id="f">
   <stop stop-color="#748182" offset="0"/>
   <stop stop-color="#748182" stop-opacity="0" offset="1"/>
  </linearGradient>
  <linearGradient id="ag" x1="338.4" x2="333.53" y1="421.22" y2="473.74" gradientUnits="userSpaceOnUse">
   <stop stop-color="#63676b" offset="0"/>
   <stop stop-color="#63676b" stop-opacity="0" offset="1"/>
  </linearGradient>
  <linearGradient id="ah" x1="-14597" x2="-14597" y1="110.45" y2="114.87" gradientTransform="matrix(3.6676 .06063 -.05241 3.1699 53962 1011.5)" gradientUnits="userSpaceOnUse">
   <stop stop-color="#c5c6c8" offset="0"/>
   <stop stop-color="#c5c6c8" stop-opacity="0" offset="1"/>
  </linearGradient>
  <linearGradient id="c">
   <stop stop-color="#272016" offset="0"/>
   <stop stop-color="#463a2e" stop-opacity="0" offset="1"/>
  </linearGradient>
  <linearGradient id="am" x1="215.44" x2="195.8" y1="574.99" y2="573.76" gradientUnits="userSpaceOnUse">
   <stop stop-color="#92866c" offset="0"/>
   <stop stop-color="#92866c" stop-opacity="0" offset="1"/>
  </linearGradient>
  <linearGradient id="b">
   <stop stop-color="#502d16" offset="0"/>
   <stop stop-color="#502d16" stop-opacity="0" offset="1"/>
  </linearGradient>
  <linearGradient id="p" x1="398.35" x2="371.3" y1="573.65" y2="573.11" gradientUnits="userSpaceOnUse" xlink:href="#e"/>
  <linearGradient id="q" x1="527.19" x2="500.14" y1="581.44" y2="580.9" gradientUnits="userSpaceOnUse" xlink:href="#e"/>
  <linearGradient id="r" x1="-14835" x2="-14835" y1="106.43" y2="110.48" gradientTransform="matrix(4.4383 0 0 3.4504 66340 159.78)" gradientUnits="userSpaceOnUse" xlink:href="#a"/>
  <linearGradient id="s" x1="-14835" x2="-14835" y1="106.43" y2="110.48" gradientTransform="matrix(4.4383 0 0 3.4504 66321 157.95)" gradientUnits="userSpaceOnUse" xlink:href="#a"/>
  <linearGradient id="u" x1="-14835" x2="-14835" y1="106.43" y2="110.48" gradientTransform="matrix(3.6681 0 0 3.581 54770 90.133)" gradientUnits="userSpaceOnUse" xlink:href="#a"/>
  <linearGradient id="v" x1="-14835" x2="-14835" y1="106.43" y2="110.48" gradientTransform="matrix(3.6681 0 0 3.581 54753 88.836)" gradientUnits="userSpaceOnUse" xlink:href="#a"/>
  <linearGradient id="w" x1="-14835" x2="-14835" y1="106.43" y2="110.48" gradientTransform="matrix(3.6681 0 0 3.581 54734 86.242)" gradientUnits="userSpaceOnUse" xlink:href="#a"/>
  <linearGradient id="x" x1="299.05" x2="298.32" y1="465.15" y2="480.02" gradientUnits="userSpaceOnUse" xlink:href="#a"/>
  <linearGradient id="y" x1="280.12" x2="279.39" y1="462.4" y2="477.26" gradientUnits="userSpaceOnUse" xlink:href="#a"/>
  <linearGradient id="ae" x1="-14659" x2="-14661" y1="116.86" y2="125.86" gradientTransform="matrix(3.6681 0 0 3.0832 53968 140.65)" gradientUnits="userSpaceOnUse" xlink:href="#f"/>
  <linearGradient id="af" x1="-14650" x2="-14648" y1="117.88" y2="124.86" gradientTransform="matrix(3.6681 0 0 3.0832 53961 140.26)" gradientUnits="userSpaceOnUse" xlink:href="#f"/>
  <linearGradient id="ai" x1="-14835" x2="-14835" y1="106.43" y2="110.48" gradientTransform="matrix(4.4383 0 0 3.4504 66301 156.57)" gradientUnits="userSpaceOnUse" xlink:href="#a"/>
  <linearGradient id="aj" x1="-14835" x2="-14835" y1="106.43" y2="110.48" gradientTransform="matrix(2.0613 0 0 2.7191 31016 217.11)" gradientUnits="userSpaceOnUse" xlink:href="#a"/>
  <linearGradient id="ak" x1="-14835" x2="-14835" y1="106.43" y2="110.48" gradientTransform="matrix(2.0613 0 0 1.9802 31003 279.48)" gradientUnits="userSpaceOnUse" xlink:href="#a"/>
  <linearGradient id="al" x1="-14835" x2="-14835" y1="106.43" y2="110.48" gradientTransform="matrix(2.0613 0 0 1.9802 30989 276.96)" gradientUnits="userSpaceOnUse" xlink:href="#a"/>
  <linearGradient id="an" x1="-14862" x2="-14848" y1="145.8" y2="147.38" gradientTransform="matrix(-87.43 0 0 3.6681 -1.2977e6 72.002)" gradientUnits="userSpaceOnUse" xlink:href="#b"/>
  <linearGradient id="ao" x1="-30.061" x2="163.11" gradientUnits="userSpaceOnUse" xlink:href="#b"/>
  <linearGradient id="ap" x1="-14862" x2="-14845" y1="145.8" y2="146.92" gradientTransform="matrix(-11.129 0 0 3.6681 -1.6504e5 72.002)" gradientUnits="userSpaceOnUse" xlink:href="#b"/>
  <linearGradient id="aq" x1="180.56" x2="233.36" y1="606.81" y2="612.61" gradientUnits="userSpaceOnUse" xlink:href="#b"/>
  <radialGradient id="j" cx="-14654" cy="105.42" r="8.132" gradientTransform="matrix(.2387 -24.696 7.079 .06842 2963.8 -3.6143e5)" gradientUnits="userSpaceOnUse">
   <stop stop-color="#ccc" offset="0"/>
   <stop stop-color="#efeae6" stop-opacity="0" offset="1"/>
  </radialGradient>
  <radialGradient id="k" cx="-14791" cy="56.297" r="17.689" gradientTransform="matrix(-8.9308e-7 1.5517 -6.9506 8.6239e-5 712.12 23226)" gradientUnits="userSpaceOnUse">
   <stop stop-color="#d1cbbf" offset="0"/>
   <stop stop-color="#d1cbbf" stop-opacity="0" offset="1"/>
  </radialGradient>
  <radialGradient id="l" cx="-14626" cy="78.79" r="18.548" gradientTransform="matrix(.38352 -11.257 4.2102 .14344 5591.1 -1.6431e5)" gradientUnits="userSpaceOnUse">
   <stop stop-color="#808080" offset="0"/>
   <stop stop-color="#ece3de" stop-opacity="0" offset="1"/>
  </radialGradient>
  <radialGradient id="g" cx="-14646" cy="108.55" r=".9845" gradientTransform="matrix(-47.969 -.95297 .18238 -9.1802 -7.0231e5 -12497)" gradientUnits="userSpaceOnUse" xlink:href="#d"/>
  <radialGradient id="h" cx="-14651" cy="107.89" r="2.25" gradientTransform="matrix(-25.26 -.20816 .02658 -3.2256 -3.6987e5 -2237.3)" gradientUnits="userSpaceOnUse" xlink:href="#d"/>
  <radialGradient id="i" cx="-14658" cy="108.26" r="1.9395" gradientTransform="matrix(-15.487 -.32246 .08999 -4.3219 -2.2681e5 -3792.7)" gradientUnits="userSpaceOnUse" xlink:href="#d"/>
  <radialGradient id="m" cx="-14845" cy="129.6" r="1.923" gradientTransform="matrix(-12.596 -1.0527 1.5682 -7.9104 -1.8684e5 -14044)" gradientUnits="userSpaceOnUse" xlink:href="#c"/>
  <radialGradient id="n" cx="-14845" cy="129.6" r="1.923" gradientTransform="matrix(-12.596 -1.0527 1.5682 -7.9104 -1.8688e5 -14047)" gradientUnits="userSpaceOnUse" xlink:href="#c"/>
  <radialGradient id="o" cx="-14845" cy="129.6" r="1.923" gradientTransform="matrix(-8.5144 -1.0959 1.06 -8.2356 -1.2627e5 -14651)" gradientUnits="userSpaceOnUse" xlink:href="#c"/>
 </defs>
 <g transform="translate(-93.287 -212.77)">
  <path d="m108.57 589.61 95.375 10.087 190.74 4.5854h55.937l88.032 14.672 47.682-2.7508 2.7497-91.702-65.107-35.764-71.528 6.4191-5.4995-21.091-54.103-0.91708 0.10072-28.743-12.001-8.9014 2.7497-152.18c-28.902-20.336-62.448-34.201-131.13 0.91658 10.959 29.043 4.2203 59.695 2.7497 89.869l-69.695 15.589-69.69 49.519-7.3377 150.39z" fill="#fff"/>
  <path d="m643.08 608.29-0.6547 50.578-403.97 9.7263-14.267-3.8904-52.517-0.64866-78.388-10.113 0.57412-69.179 83.645-0.46333h46.035l20.109 2.5936 399.43 21.398z" fill="#b3a878"/>
  <path d="m240.87 669.1c0.30217-19.073 1.0223-82.508 1.0223-82.508l-16.398-2.2859-0.64463 80.406 16.02 4.388z" fill="url(#aq)" opacity=".61739"/>
  <path d="m173.7 664.28c-0.99716-19.073 0.55901-80.215 0.55901-80.215l51.59 1.3824-1.0072 79.259-51.142-0.42304z" fill="url(#ap)" opacity=".62304"/>
  <path d="m172.88 664.28c1.4806-19.073-0.82089-80.215-0.82089-80.215l-78.77 0.0906 0.10072 69.329 79.511 10.794z" fill="url(#ao)" opacity=".62304"/>
  <path d="m266.37 669.1c-7.8715-19.073-24.486-82.508-24.486-82.508l401.28 21.381-1.7022 50.578-375.09 10.548z" fill="url(#an)" opacity=".62304"/>
  <path d="m410.37 452.09-167.45-24.57s-29.804-58.689-25.221-59.148 89.412 15.589 89.412 15.589l103.26 68.129z" fill="#a69f71"/>
  <path d="m380.46 425.88-125.15-51.874 4.5476-75.218c-5.6959-5.7906-3.5152-10.598-2.5986-15.563-7.6449-1.6247-4.3261-7.8141-1.949-13.617l66.789-40.203 64.196 41.499c3.2634 4.7521 3.0066 9.9454-0.64463 15.562-1.0777 6.1114-0.90147 14.424-5.1923 14.914 6.8744 0.25684 0 82.999 0 124.5z" fill="#fff"/>
  <path d="m388.19 283.99c-2.2461-20.88-44.071-28.802-68.749-27.144-71.206 4.7848-64.735 19.351-63.682 28.313-21.293-12.526 36.119-36.216 65.556-55.669 0.45325-0.31225 0.56909-16.404 1.0274-16.722 0.51368 0.30217 1.0677 16.447 1.5814 16.745 81.757 47.66 61.975 39.637 64.266 54.476z" fill="#27221f"/>
  <path d="m209.56 585.49 2.1857-77.488c-4.044 30.059-2.0296 76.733-15.934 77.202l13.749 0.28706z" fill="url(#am)"/>
  <path d="m172 572.04s-12.651 0.80931-12.651-0.26691 0.97198-28.592 0.97198-28.592c3.9987-9.2756 8.3197-5.988 12.318-3.5067l-0.63959 32.369z" fill="#342c21" opacity=".52609"/>
  <path d="m145.73 571.6s-12.641 0.72722-12.641-0.24174 0.97198-25.705 0.97198-25.705c3.9987-8.3389 8.3197-5.3831 12.318-3.1526l-0.64966 29.099z" fill="#342c21" opacity=".52609"/>
  <path d="m271.65 573.32-13.774-0.16116 0.30217-31.773 13.769 0.32735-0.30217 31.611z" fill="#463a2e" opacity=".61739"/>
  <path d="m346.69 543.27c0.81082-0.0504 24.843 0.61492 24.843 0.61492" fill="none" opacity=".61739" stroke="#ccc" stroke-width="2.9345"/>
  <path d="m271.65 573.32-13.774-0.16116 0.30217-31.773 13.769 0.32735-0.30217 31.611z" fill="url(#o)" opacity=".61739"/>
  <path d="m322.3 576.06-20.381-0.15612 0.50361-30.519 20.386 0.31224-0.50361 30.362z" fill="#463a2e" opacity=".61739"/>
  <path d="m322.3 576.06-20.381-0.15612 0.50361-30.519 20.386 0.31224-0.50361 30.362z" fill="url(#n)" opacity=".61739"/>
  <path d="m367.58 578.82-20.391-0.15612 0.50361-30.519 20.376 0.31224-0.50361 30.363z" fill="#463a2e" opacity=".61739"/>
  <path d="m367.58 578.82-20.391-0.15612 0.50361-30.519 20.376 0.31224-0.50361 30.363z" fill="url(#m)" opacity=".61739"/>
  <path d="m411.71 504.96-6.3758-0.17123 0.20145-16.19c0.45325-1.1311 3.8174-4.2535 6.275 0.43815l-0.10072 15.928z" fill="#808078"/>
  <path d="m411.71 504.96-6.3758-0.17123 0.20145-16.19c0.45325-1.1311 3.8174-4.2535 6.275 0.43815l-0.10072 15.928z" fill="url(#al)"/>
  <path d="m425.69 507.48-6.3808-0.17123 0.20144-16.19c0.50362-1.1311 3.8325-4.253 6.2902 0.43815l-0.10072 15.927z" fill="#808078"/>
  <path d="m425.69 507.48-6.3808-0.17123 0.20144-16.19c0.50362-1.1311 3.8325-4.253 6.2902 0.43815l-0.10072 15.927z" fill="url(#ak)"/>
  <path d="m438.53 530.18-6.3758-0.2367 0.20145-22.231c0.45325-1.5532 3.8224-5.8399 6.2851 0.60082l-0.10073 21.87z" fill="#808078"/>
  <path d="m438.53 530.18-6.3758-0.2367 0.20145-22.231c0.45325-1.5532 3.8224-5.8399 6.2851 0.60082l-0.10073 21.87z" fill="url(#aj)"/>
  <path d="m464.69 553.85-13.739-0.30217 0.40289-28.211c1.0173-1.9712 8.2291-7.4112 13.522 0.76247l-0.15109 27.753z" fill="#808078"/>
  <path d="m464.69 553.85-13.739-0.30217 0.40289-28.211c1.0173-1.9712 8.2291-7.4112 13.522 0.76247l-0.15109 27.753z" fill="url(#ai)"/>
  <path d="m393.54 472.57 0.30217 9.6221 55.881 3.6986-1.6972-8.5494-54.526-4.7712z" fill="url(#ah)"/>
  <path d="m591.9 528.89-63.461-25.554-77.139 0.18634-47.36-45.447 121.26-2.1917 66.699 73.006z" fill="#4e4936"/>
  <path d="m393.44 473.1 66.135 5.5116-67.112-28.531 0.97701 23.02z" fill="#8b8868"/>
  <path d="m393.76 463.37-0.64966-16.211-189.02-25.937-0.30217 19.777 189.99 22.371z" fill="url(#ag)" opacity=".6913"/>
  <path d="m100.78 444.72 109.59-20.174 9.6291-59.606-119.22 79.78z" fill="#a4a271"/>
  <path d="m243.14 504.86c-3.9483 11.039-5.8319 24.677-39.07-1.1649l39.07 1.1649z" fill="url(#af)" opacity=".22174"/>
  <path d="m214.49 504.84c-8.6672 12.536-31.98 30.365-30.146 0.33239l30.146-0.33239z" fill="url(#ae)" opacity=".2"/>
  <path d="m242.35 508.44c-18.825 2.9965-38.023 2.9441-57.709-0.97299l-0.30217-105.69c21.273-9.399 40.964-7.7652 59.658 0.97248l-1.6317 105.69z" fill="#f9f9f9"/>
  <path d="m380.46 425.88-125.15-51.874 4.5476-75.218c-5.6959-5.7906-3.5152-10.598-2.5986-15.563-7.6449-1.6247-4.3261-7.8141-1.949-13.617l130.99 1.2968c3.2634 4.7521 3.0066 9.9454-0.64463 15.562-1.0777 6.1114-0.90147 14.424-5.1923 14.914 6.8744 0.25684 0 82.999 0 124.5z" fill="url(#l)" opacity=".3"/>
  <path d="m358.01 327.12c0.20144-4.3553-0.25181-16.965-0.25181-16.965l-6.1894 0.91708 0.45325 15.589 5.9628 0.45829z" fill="#554b49"/>
  <path d="m364.3 320.64c-0.30217-4.4409-0.51872-19.473-0.51872-19.473l9.6493 4.3754 0.20144 17.643-9.3421-2.5498z" fill="#554b49"/>
  <path d="m364.72 297.03 13.804 4.6892 0.10072 4.8231c-4.1901 1.2651-9.6694-2.6989-14.549-4.2107-2.9562-1.9918-3.1073-4.3059 0.67485-5.3016z" fill="#706f75" opacity=".5913"/>
  <path d="m380.68 301.47c-36.155-21.978-73.644-23.465-120.8-2.651-5.1016-4.5391-4.3613-12.87-2.6238-15.536 42.279-19.582 86.516-22.168 128.47 3.0277-1.3044 5.646-0.78564 14.122-5.0462 15.159z" fill="url(#k)"/>
  <path d="m385.74 286.42c-36.15-21.979-81.344-23.904-128.5-3.0892-2.5584-0.976-8.4557-1.3557-1.813-13.875 42.581-18.886 89.513-22.257 130.86 1.5466 3.4296 4.8886 2.9562 10.147-0.54894 15.417z" fill="url(#ad)"/>
  <path d="m386.2 271.06c-36.144-10.088-75.844-17.62-130.79-1.877 22.214-14.873 103.27-20.359 130.79 1.877z" fill="url(#ac)"/>
  <path d="m242.35 508.44c-18.825 2.9965-38.023 2.9441-57.709-0.97299l-0.30217-105.69c21.273-9.399 40.964-7.7652 59.658 0.97248l-1.6317 105.69z" fill="url(#j)" opacity=".57826"/>
  <path d="m250.6 408.73c-20.804-8.5781-42.707-13.085-69.217-0.45829-5.429-2.3735-3.339-4.671-2.8202-6.4191 39.695-11.831 56.073-4.7118 72.46-0.23166 1.8533 3.2513 4.9505 5.5891-0.45325 7.1065z" fill="#282811"/>
  <path d="m253.38 404.69c-21.716-14.87-52.885-9.9942-75.22-2.5936l17.506-16.86 21.399-70.112 1.8634-20.749 1.4605 20.993 23.267 75.704 9.7248 13.617z" fill="#c1cdc1"/>
  <path d="m193.63 397.5c11.049-19.525 17.073-52.458 24.763-80.926" fill="none" stroke="#9bada9" stroke-width=".36681"/>
  <path d="m204.4 395.43c11.049-19.526 8.36-49.708 13.99-78.864" fill="none" stroke="#9bada9" stroke-width=".36681"/>
  <path d="m217.47 394.98c-0.20145-19.525 1.0274-49.707 0.92161-78.405" fill="none" stroke="#9bada9" stroke-width=".36681"/>
  <path d="m231.45 395.66c-3.3893-18.609-12.953-50.395-13.059-79.093" fill="none" stroke="#9bada9" stroke-width=".36681"/>
  <path d="m242.92 398.64c-4.3109-18.609-21.902-67.131-24.526-82.073" fill="none" stroke="#9bada9" stroke-width=".36681"/>
  <path d="m253.38 404.69c-21.716-14.87-52.885-9.9942-75.22-2.5936l17.506-16.86 21.399-70.112 1.8634-20.749 1.4605 20.993 23.267 75.704 9.7248 13.617z" fill="url(#ab)" opacity=".7087"/>
  <path d="m243.84 390.85s-14.902-3.8975-15.134-4.8141c-0.25181-0.91709-8.0226-2.9804-8.0226-2.9804l-2.7497-11.234 7.796-2.7508-3.6714-47.456 21.781 69.235z" fill="url(#aa)" opacity=".27826"/>
  <path d="m213.01 327.69s3.6965-9.7626 3.6965-10.802 2.231-23.386 2.231-23.386l1.3295 22.568 2.7246 10.994-9.9816 0.62649z" fill="url(#z)"/>
  <path d="m274.55 366.55c0.20145-4.3558-0.20144-16.965-0.20144-16.965l-6.1945 0.91708 0.45325 15.589 5.9628 0.45829z" fill="#554b49"/>
  <path d="m282.95 321.37c0.35253-4.3976 0.67484-19.396 0.67484-19.396l-12.6 2.9431-0.2518 17.616 12.198-1.1628z" fill="#554b49"/>
  <path d="m284.11 302.1-14.081 3.7766-2.7397-3.9675c2.7699-3.3793 9.5385-3.134 14.429-4.5879 3.5656 0 4.9808 1.8518 2.3922 4.7788z" fill="#706f75" opacity=".5913"/>
  <path d="m277.63 348.15-11.674 1.7173-1.6871-2.8651c2.6339-2.1318 7.9823-1.5557 12.062-2.2486 2.8354 0.22159 3.7268 1.5607 1.2993 3.3964z" fill="#706f75" opacity=".5913"/>
  <path d="m245.26 416.68c0.6547-2.2693 0.6547-11.023 0.6547-11.023-19.017-9.7324-39.67-8.502-61.275-0.97248v8.1052c29.94-13.843 46-6.0907 60.62 3.8904z" fill="#64696d" opacity=".62174"/>
  <path d="m204.11 456.76-13.175-0.0504-1.0576 30.225 14.026 0.32735c0-9.0283-0.15109-21.787 0.20144-30.516z" fill="#6b6f71" opacity=".6913"/>
  <path d="m213.86 456.03-0.5993 31.027h15.98c0-9.0283 0.20144-21.787 0.52376-30.515l-15.904-0.49354z" fill="#6b6f71" opacity=".6913"/>
  <path d="m237.01 456.84-0.15108 30.912 4.8599-0.70204c0-9.0283 2.0497-20.756 2.362-29.484l-6.6225-0.83953-0.45326 0.11584z" fill="#6b6f71" opacity=".6913"/>
  <path d="m204.11 456.76-13.175-0.0504-1.0576 30.225 14.026 0.32735c0-9.0283-0.15109-21.787 0.20144-30.516z" fill="url(#i)" opacity=".6913"/>
  <path d="m213.86 456.03-0.5993 31.027h15.98c0-9.0283 0.20144-21.787 0.52376-30.515l-15.904-0.49354z" fill="url(#h)" opacity=".6913"/>
  <path d="m237.01 456.84-0.15108 30.912 4.8599-0.70204c0-9.0283 2.0497-20.756 2.362-29.484l-6.6225-0.83953-0.45326 0.11584z" fill="url(#g)" opacity=".6913"/>
  <path d="m284.98 494.33-11.346-0.32735 0.30217-29.99c0.84607-2.095 6.8139-7.878 11.185 0.81032l-0.15109 29.504z" fill="#808078"/>
  <path d="m284.98 494.33-11.346-0.32735 0.30217-29.99c0.84607-2.095 6.8139-7.878 11.185 0.81032l-0.15109 29.504z" fill="url(#y)"/>
  <path d="m303.91 497.09-11.351-0.32735 0.30217-29.99c0.84607-2.0955 6.8139-7.8786 11.19 0.81032l-0.15108 29.504z" fill="#808078"/>
  <path d="m303.91 497.09-11.351-0.32735 0.30217-29.99c0.84607-2.0955 6.8139-7.8786 11.19 0.81032l-0.15108 29.504z" fill="url(#x)"/>
  <path d="m321.91 498.55-11.346-0.31727 0.30217-29.278c0.84607-2.0457 6.8089-7.6917 11.18 0.79118l-0.15108 28.803z" fill="#808078"/>
  <path d="m321.91 498.55-11.346-0.31727 0.30217-29.278c0.84607-2.0457 6.8089-7.6917 11.18 0.79118l-0.15108 28.803z" fill="url(#w)"/>
  <path d="m340.55 501.14-11.346-0.31727 0.30217-29.278c0.84607-2.0457 6.8139-7.6912 11.185 0.79118l-0.15108 28.803z" fill="#808078"/>
  <path d="m340.55 501.14-11.346-0.31727 0.30217-29.278c0.84607-2.0457 6.8139-7.6912 11.185 0.79118l-0.15108 28.803z" fill="url(#v)"/>
  <path d="m358.22 502.44-11.352-0.31728 0.35254-29.278c0.84103-2.0457 6.8089-7.6912 11.18 0.79168l-0.15109 28.803z" fill="#808078"/>
  <path d="m358.22 502.44-11.352-0.31728 0.35254-29.278c0.84103-2.0457 6.8089-7.6912 11.18 0.79168l-0.15109 28.803z" fill="url(#u)"/>
  <path d="m362.31 507.14-93.214-9.4025c-0.45326-3.1179 21.071-1.2706 43.109 1.3134 25.518 3.0116 53.187 1.6816 50.105 8.0891z" fill="#c6c7c1" opacity=".67391"/>
  <path d="m160.64 496.57s-10.747 1.2832-10.782 0.31224v-25.722c3.1426-8.5066 6.9146-5.7442 10.4-3.6915l0.40289 29.098z" fill="#342c21" opacity=".52609"/>
  <path d="m142.49 499.54s-10.108 1.179-10.138 0.28706v-23.63c2.9512-7.8151 6.5017-5.2774 9.7752-3.3918l0.35253 26.732z" fill="#342c21" opacity=".52609"/>
  <path d="m115.87 442.04-0.67485 14.239 69.192-8.351v-18.6l-68.411 12.482-0.15109 0.23166z" fill="url(#t)" opacity=".34348"/>
  <path d="m256.91 534.9c0.80578 0 17.345 1.459 17.345 1.459" fill="none" opacity=".75217" stroke="#ccc" stroke-width="3.6681"/>
  <path d="m300.35 539.11c0.81082 0 24.803 1.459 24.803 1.459" fill="none" opacity=".7" stroke="#ccc" stroke-width="2.9345"/>
  <path d="m483.95 555.22-13.734-0.30217 0.4029-28.211c1.0173-1.9712 8.2341-7.4112 13.527 0.76247l-0.15109 27.753z" fill="#808078"/>
  <path d="m483.95 555.22-13.734-0.30217 0.4029-28.211c1.0173-1.9712 8.2341-7.4112 13.527 0.76247l-0.15109 27.753z" fill="url(#s)"/>
  <path d="m503.2 557.05-13.729-0.30217 0.4029-28.211c1.0173-1.9712 8.2391-7.4107 13.527 0.76298l-0.15108 27.753z" fill="#808078"/>
  <path d="m503.2 557.05-13.729-0.30217 0.4029-28.211c1.0173-1.9712 8.2391-7.4107 13.527 0.76298l-0.15108 27.753z" fill="url(#r)"/>
  <path d="m527.19 502.96-6.3808 98.848 5.4693 0.64815 0.91154-99.496z" fill="url(#q)"/>
  <path d="m394.23 471.32-2.2562 122.69 0.88133 1.5657 1.3749-124.26z" fill="url(#p)"/>
  <path d="m551.97 590.84s-12.641 0.80931-12.641-0.26692 0.97197-28.592 0.97197-28.592c3.9987-9.2751 8.3197-5.988 12.318-3.5067l-0.64967 32.368z" fill="#342c21" opacity=".52609"/>
  <path d="m574.35 592.99s-12.646 0.72773-12.646-0.24173 0.97197-25.705 0.97197-25.705c3.9937-8.3389 8.3197-5.3832 12.313-3.1526l-0.63959 29.1z" fill="#342c21" opacity=".52609"/>
 </g>
</svg>
